<svg xmlns="http://www.w3.org/2000/svg" viewBox="0 0 256 256"><defs><style>.cls-1{fill:#2a6a99;}</style></defs><title>others_1</title><g id="Layer_2" data-name="Layer 2"><g id="Capa_1" data-name="Capa 1"><path class="cls-1" d="M128,0A128,128,0,1,0,256,128,128.14,128.14,0,0,0,128,0ZM16,128A111.92,111.92,0,0,1,206.53,48.26L99.14,99.13,48.27,206.53A111.58,111.58,0,0,1,16,128Zm102.82-20.49,56.36-26.69-26.69,56.35Zm18.36,41-56.36,26.7,26.69-56.36ZM128,240a111.63,111.63,0,0,1-78.53-32.26l107.39-50.88L207.74,49.47A111.92,111.92,0,0,1,128,240Z"/><path class="cls-1" d="M128,48a79.12,79.12,0,0,1,35.52,8.41l7.13-14.33A95,95,0,0,0,128,32a96.1,96.1,0,0,0-96,96,95,95,0,0,0,10.08,42.65l14.33-7.13A79.06,79.06,0,0,1,48,128,80.09,80.09,0,0,1,128,48Z"/><path class="cls-1" d="M213.92,85.35l-14.33,7.13A79.06,79.06,0,0,1,208,128a80.09,80.09,0,0,1-80,80,79.12,79.12,0,0,1-35.52-8.41l-7.13,14.33A95,95,0,0,0,128,224a96.1,96.1,0,0,0,96-96A95,95,0,0,0,213.92,85.35Z"/></g></g></svg>